# xmcd
#
# Track frame offsets:
#	150
#	12225
#	29240
#	39377
#	51175
#	68907
#	81372
#	91835
#	109257
#	122160
#	135710
#	151515
#
# Disc length: 2153 seconds
#
# Revision: 3
# Processed by: cddbd v1.4PL0 Copyright (c) Steve Scherf et al.
# Submitted via: EasyCDDAExtractor 4.5.0.2
#
DISCID=9b08670c
DTITLE=Bluegrass Album Band - Bluegrass Instrumentals - Volume 6
DYEAR=1996
DGENRE=Bluegrass
TTITLE0=Wheel Hoss
TTITLE1=Misty Morning
TTITLE2=Ground Speed
TTITLE3=Stoney Lonesome
TTITLE4=Lonesome Moonlight Waltz
TTITLE5=Brown County Breakdown
TTITLE6=Tall Timber
TTITLE7=North Country Waltz
TTITLE8=Foggy Mountain Chimes
TTITLE9=Monroe's Hornpipe
TTITLE10=Home Sweet Home
TTITLE11=Roanoke
EXTD=
EXTT0=
EXTT1=
EXTT2=
EXTT3=
EXTT4=
EXTT5=
EXTT6=
EXTT7=
EXTT8=
EXTT9=
EXTT10=
EXTT11=
PLAYORDER=
